<?xml version="1.0" encoding="UTF-8"?>
<svg id="Layer_1" data-name="Layer 1" xmlns="http://www.w3.org/2000/svg" viewBox="0 0 758.4 190.66">
  <defs>
    <style>
      .cls-1 {
        fill: #77b800;
      }
    </style>
  </defs>
  <path class="cls-1" d="m704.83,78.71c-10.56-3.5-22.54-4.19-27.42-6.29-1.7-.8-3.06-1.64-3.05-3.38.04-2.37.99-3.49,2.55-4.31,1.57-.8,3.83-1.05,5.97-1.04,2.32,0,4.64.73,6.33,2.15,1.94,1.36,3.15,3.11,3.29,5.47.02.51.46.91.96.91h28.45c.26,0,.51-.1.7-.3.18-.18.28-.43.27-.69-.38-10.86-6.23-17.74-14.1-21.68-7.87-3.95-17.75-5.17-26.69-5.18-8.32,0-18.13,1.35-25.97,5.39-6.79,3.46-12.11,9.12-13.41,17.53-1.5-8.62-6.83-14.3-13.7-17.74-7.87-3.95-17.75-5.17-26.69-5.18-8.32,0-18.12,1.35-25.97,5.39-7.84,4-13.75,10.93-13.72,21.66,0,.95.04,1.87.13,2.76-1.68-6.44-4.35-11.94-8.31-16.4-7.81-8.8-19.8-13.41-36.24-13.4-13.2,0-24.29,4.96-32.07,13-3.08,3.19-5.62,6.87-7.58,10.9v-21.67c0-.43-.3-.83-.72-.93-3.07-.81-6.16-1.3-9.42-1.3-10.6-.05-17.45,4.68-22.43,12.97v-9.95c0-.25-.1-.5-.27-.68-.18-.17-.43-.28-.68-.28h-30.03c-.25,0-.5.11-.68.28-.18.18-.28.43-.28.68v37.32c-1.41-19.68-12.82-40.29-35.26-40.34-13.79-.06-19.52,4.83-23.37,9.6v-6.59c0-.25-.1-.5-.29-.68-.18-.18-.42-.28-.68-.28h-30.19c-.26,0-.51.1-.68.28-.18.18-.28.43-.28.68v30.67c-1.55-8.13-4.44-14.94-9.18-20.28-7.81-8.8-19.8-13.41-36.24-13.4-13.2,0-24.29,4.96-32.07,13-1.29,1.34-2.46,2.79-3.56,4.29v-14.49c0-.2-.08-.39-.22-.53-.14-.14-.34-.22-.53-.22h-15.81c-.01-.32-.02-.62-.02-.92,0-3.06.65-4.81,1.95-5.86,1.31-1.08,3.58-1.57,7.04-1.57,2.39,0,4.9.77,7.53,1.11.21.03.43-.04.59-.18.16-.14.25-.35.25-.56v-21.61c0-.4-.32-.73-.72-.74-4.73-.16-9.35-.64-14.16-.64-12.71-.01-20.98.95-28.01,8-5.55,5.56-6.79,13.47-6.79,20.84,0,.71.01,1.43.03,2.13h-12.1c-.19,0-.38.08-.52.22-.14.14-.22.34-.22.53v16.49c-.71-3.3-1.98-6.41-4.26-9.15-5.16-6.18-15.19-10.15-34.66-10.15-9.74,0-20.31.94-28.45,4.84-8.29,3.88-14.26,11.05-14.72,22.89,0,.2.07.4.21.55.14.14.34.23.54.23h29.23c.4,0,.73-.31.76-.72.24-3.24,1.59-7.61,11-7.7,2.44,0,4.9.5,6.67,1.62,1.77,1.12,2.89,2.72,2.9,5.26,0,4.67-3.64,5.72-7.96,6.57-7.95,1.5-19.63,2.01-29.41,5.45-6.95,2.41-12.99,6.48-15.9,13.42,0-.19-.05-.37-.17-.52-.14-.16-.35-.26-.56-.26h-30.03c-.38,0-.7.29-.74.68-.62,6.21-5.1,11.4-11.48,11.39-5.82-.03-8.9-2.39-10.77-6.01-1.85-3.63-2.3-8.62-2.3-13.58,0-4.96.45-9.99,2.3-13.66,1.87-3.66,4.95-6.05,10.77-6.08,3.19,0,5.69.91,7.43,2.51,1.89,1.6,2.94,4.08,3.26,7.31.04.38.36.68.75.68h29.87c.2,0,.41-.09.55-.25.14-.15.21-.36.19-.56-1.92-23.18-20.87-34.1-42.69-34.06-12.56,0-23.92,4.4-32.13,12.12-8.21,7.73-13.27,18.78-13.26,32,0,13.22,5.05,24.24,13.26,31.93,8.22,7.68,19.57,12.04,32.13,12.04,11.26,0,21.44-3.22,29.06-9.22,5.83-4.61,10.3-10.79,12.78-18.36-.04.62-.07,1.23-.07,1.88-.01,8.85,3.4,15.36,8.87,19.56,5.46,4.21,12.89,6.13,20.95,6.13h.02c9.76,0,19.24-2.04,26.06-9.01.08,2.12.51,4.6,1.17,6.45.1.3.39.5.71.5h32.09c.28,0,.53-.16.66-.4.14-.24.12-.54-.03-.77-3.34-4.99-3.7-11.84-3.69-18.01v-34.6c0-3.11-.02-6.27-.35-9.33.06.02.12.04.18.04h12.12v62.32c0,.2.08.39.22.53.14.14.33.22.53.22h31.46c.2,0,.39-.08.53-.22.14-.14.22-.33.22-.53v-62.32h12.34c-3.29,6.34-5.09,13.62-5.09,21.33-.01,13.9,5.05,24.92,13.48,32.39,8.43,7.48,20.17,11.41,33.48,11.41h.07c18.87,0,33.96-8.51,40.44-26.67.1-.3.06-.63-.12-.88-.18-.26-.48-.41-.79-.41h-26.35c-.33,0-.64.16-.81.45-2.22,3.53-7.76,5.53-12.6,5.52-8.93-.06-13.78-5.61-14.89-14.04h57.78v59.57c0,.25.1.51.28.67.17.19.42.29.68.29h31.29c.25,0,.5-.1.68-.29.18-.17.28-.42.28-.67v-33.11c5.09,6.08,13.07,9.58,21.8,9.58,14.03.02,23.17-6.05,28.59-14.55,4.61-7.2,6.63-16.09,7.15-24.58v36.11c0,.25.1.5.28.68.18.18.43.29.68.29h31.29c.25,0,.5-.11.68-.29.19-.18.29-.43.29-.68v-32.41c.16-17.35,6.17-23.72,18-23.85,5.4,0,8.09.68,10.76,1.57-1.34,4.38-2.08,9.05-2.08,13.9-.01,13.9,5.05,24.92,13.48,32.39,8.43,7.48,20.17,11.41,33.48,11.41h.07c18.87,0,33.96-8.51,40.44-26.67.1-.3.06-.63-.12-.88-.18-.26-.48-.41-.79-.41h-26.35c-.33,0-.64.16-.81.45-2.22,3.53-7.76,5.53-12.6,5.52-8.93-.06-13.78-5.61-14.89-14.04h58.26c.26,0,.5-.1.68-.28.18-.18.28-.42.28-.68,0-5.83-.38-11.23-1.22-16.16,3.36,9.79,13.85,15.6,33.09,18.84,7.24,1.25,11.52,2.26,13.8,3.43,2.23,1.22,2.56,2.11,2.63,4.32.12,3.49-3.41,4.84-6.26,5.43-5.19,1.08-11.34.16-14.2-4.7-.38-.64-.91-2.14-1.83-2.14-9.59.02-18.47,0-28.06,0h-.58c-.26,0-.51.11-.69.29-.18.19-.28.44-.28.7.55,21.95,21.63,26.98,41.03,26.98h.15c10.06-.01,20.62-1.55,28.8-6.05,4.97-2.72,9.03-6.63,11.45-11.89,5.4,14.34,22.99,17.94,39.37,17.94h.15c10.06-.01,20.62-1.55,28.8-6.05,8.18-4.48,13.92-12.14,13.89-23.84.03-13.97-9.71-20.54-20.27-23.84Zm-555.08,21.51c-.51,8.2-5.59,12.06-12.44,12.12-5.4-.01-9.09-3.62-9.1-6.88.04-5.08,3.03-6.5,10.06-8.17,3.91-.87,7.86-1.88,11.48-3.52v6.44Zm116.01-22.03c1.67-7.77,6.38-11.74,14.95-11.83,7.19.02,12.28,5.18,12.75,11.83h-27.7Zm112.66,23.57c-1.95,3.6-4.94,5.95-10.24,5.98-5.3-.03-8.29-2.38-10.23-5.98-1.92-3.62-2.56-8.55-2.55-13.28,0-4.81.64-9.79,2.55-13.43,1.94-3.62,4.93-5.97,10.23-6,5.3.03,8.29,2.38,10.23,6,1.92,3.64,2.56,8.61,2.56,13.43,0,4.73-.64,9.66-2.55,13.28Zm127.68-23.57c1.67-7.77,6.38-11.74,14.95-11.83,7.19.02,12.28,5.18,12.75,11.83h-27.7Zm180.77,33.11c-5.19,1.08-11.34.16-14.2-4.7-.38-.64-.91-2.14-1.83-2.14-8.75.02-16.92,0-25.57,0,.03-.63.06-1.27.05-1.92.03-13.97-9.7-20.54-20.27-23.84-10.56-3.5-22.54-4.19-27.42-6.29-1.7-.8-3.06-1.64-3.05-3.38.04-2.37.99-3.49,2.55-4.31,1.57-.8,3.83-1.05,5.97-1.04,2.32,0,4.64.73,6.33,2.15,1.94,1.36,3.15,3.11,3.29,5.47.02.51.45.91.96.91h28.45c.1,0,.19-.03.28-.06.32,14.19,10.77,22,34.27,25.96,7.24,1.25,11.52,2.26,13.8,3.43,2.23,1.22,2.56,2.11,2.63,4.32.12,3.49-3.41,4.84-6.26,5.43Z"/>
  <path class="cls-1" d="m737.86,104.97c-7.25,0-13.14,5.82-13.14,12.97s5.77,13.11,13.14,13.11,13.08-5.76,13.08-13.11-5.87-12.97-13.08-12.97Zm6.93,20.68l-4.21-6.5c2.35-.45,3.63-1.96,3.63-4.32,0-3.06-1.87-4.62-5.56-4.62h-6.1v15.55h3.07v-6.36h1.84l4.03,6.36h3.18c-1.76,1.67-4.13,2.65-6.8,2.65-5.74,0-10.06-4.51-10.06-10.48s4.33-10.34,10.06-10.34,10.01,4.54,10.01,10.34c0,3.11-1.16,5.82-3.08,7.7Zm-7.16-8.86h-2.01v-3.94h2.66c2.01,0,2.87.56,2.87,1.88,0,1.91-1.39,2.06-3.51,2.06Z"/>
</svg>